<svg xmlns="http://www.w3.org/2000/svg" xmlns:xlink="http://www.w3.org/1999/xlink" viewBox="0,0,256,256" width="50px" height="50px" fill-rule="nonzero"><g fill="#ffffff" fill-rule="nonzero" stroke="none" stroke-width="1" stroke-linecap="butt" stroke-linejoin="miter" stroke-miterlimit="10" stroke-dasharray="" stroke-dashoffset="0" font-family="none" font-weight="none" font-size="none" text-anchor="none" style="mix-blend-mode: normal"><g transform="scale(5.12,5.12)"><path d="M47.49,4.67l-3.41,-3.21l-1.47,-1.39l-1.37,1.49l-2.25,2.44h-8c-0.02,0 -0.04,0 -0.06,0.01c-0.02,-0.01 -0.03,-0.01 -0.05,-0.01h-21.88c-2.76,0 -5,2.24 -5,5v32c0,2.76 2.24,5 5,5h32c2.76,0 5,-2.24 5,-5v-31.78l1.6,-1.74l1.33,-1.46zM14.45,40c-3.72,0 -6.27,-1.98 -6.45,-5h2.55c0.27,1.64 1.81,2.62 4.09,2.62c2.09,0 3.63,-1.09 3.63,-2.65c0,-1.37 -0.91,-2.1 -3.18,-2.65l-2.18,-0.54c-3,-0.73 -4.46,-2.29 -4.46,-4.75c0,-3.02 2.46,-5.03 6.19,-5.03c3.45,0 6,2.01 6.09,4.93h-2.55c-0.27,-1.55 -1.63,-2.55 -3.63,-2.55c-2.1,0 -3.46,1 -3.46,2.55c0,1.28 0.91,1.92 3.09,2.47l1.91,0.46c3.46,0.82 4.91,2.28 4.91,4.84c0,3.29 -2.55,5.3 -6.55,5.3zM36,34h-9.38v0.13c0.1,2.12 1.5,3.75 3.57,3.75c1.5,0 2.62,-0.53 3.09,-1.5h2.53c-0.56,2.29 -2.72,3.62 -5.72,3.62c-3.75,0 -6.09,-2.48 -6.09,-6.46c0,-3.98 2.34,-6.54 6.09,-6.54c3.66,0 5.91,2.39 5.91,6.28zM29.73,24l-10.73,-10.2l3.23,-3.4l7.31,6.8l13.17,-14.29l3.41,3.21zM30.09,29.05c-1.85,0 -3.12,1.18 -3.34,2.95h6.59c-0.2,-1.84 -1.39,-2.95 -3.25,-2.95z"></path></g></g></svg>